<?xml version="1.0" encoding="UTF-8" standalone="no"?><!DOCTYPE svg PUBLIC "-//W3C//DTD SVG 1.1//EN" "http://www.w3.org/Graphics/SVG/1.1/DTD/svg11.dtd"><svg width="100%" height="100%" viewBox="0 0 175 32" version="1.1" xmlns="http://www.w3.org/2000/svg" xmlns:xlink="http://www.w3.org/1999/xlink" xml:space="preserve" xmlns:serif="http://www.serif.com/" style="fill-rule:evenodd;clip-rule:evenodd;stroke-linejoin:round;stroke-miterlimit:2;"><g><path d="M30,0l-30,0l0,32l30,-32Z" style="fill:#e6e6e6;"/><path d="M30,32l-30,0l0,-32l30,32Z" style="fill:#fff;"/><path d="M30,11l-5,5l5,5l0,-10Z" style="fill:#e6e6e6;"/><g transform="matrix(2.53004,0,0,2.53004,-105.507,-17.7458)"><g transform="matrix(11.067,0,0,11.067,56.3577,17.4803)"><path d="M0.338,-0.359l0.299,0.359l-0.171,0l-0.261,-0.323l0,0.323l-0.141,0l0,-0.706l0.141,0l0,0.317l0.262,-0.317l0.17,0l-0.299,0.347Z" style="fill:#fff;fill-rule:nonzero;"/></g><g transform="matrix(11.067,0,0,11.067,63.2303,17.4803)"><path d="M0.633,-0.706l-0.239,0.459l0,0.247l-0.142,0l0,-0.247l-0.24,-0.459l0.162,0l0.15,0.309l0.15,-0.309l0.159,0Z" style="fill:#fff;fill-rule:nonzero;"/></g><g transform="matrix(11.067,0,0,11.067,70.0365,17.4803)"><path d="M0.205,-0.108l0.237,0l0,0.108l-0.378,0l0,-0.706l0.141,0l0,0.598Z" style="fill:#fff;fill-rule:nonzero;"/></g><g transform="matrix(11.067,0,0,11.067,74.8174,17.4803)"><path d="M0.205,-0.594l0,0.183l0.25,0l0,0.108l-0.25,0l0,0.19l0.28,0l0,0.113l-0.421,0l0,-0.706l0.421,0l0,0.112l-0.28,0Z" style="fill:#fff;fill-rule:nonzero;"/></g><g transform="matrix(11.067,0,0,11.067,82.9295,17.4803)"><path d="M0.825,-0.698l0,0.698l-0.14,0l0,-0.487l-0.179,0.487l-0.122,0l-0.179,-0.485l0,0.485l-0.141,0l0,-0.698l0.171,0l0.212,0.525l0.208,-0.525l0.17,0Z" style="fill:#fff;fill-rule:nonzero;"/></g><g transform="matrix(11.067,0,0,11.067,92.4361,17.4803)"><rect x="0.064" y="-0.706" width="0.141" height="0.706" style="fill:#fff;fill-rule:nonzero;"/></g><g transform="matrix(11.067,0,0,11.067,95.0811,17.4803)"><path d="M0.205,-0.108l0.237,0l0,0.108l-0.378,0l0,-0.706l0.141,0l0,0.598Z" style="fill:#fff;fill-rule:nonzero;"/></g><g transform="matrix(11.067,0,0,11.067,99.862,17.4803)"><path d="M0.205,-0.108l0.237,0l0,0.108l-0.378,0l0,-0.706l0.141,0l0,0.598Z" style="fill:#fff;fill-rule:nonzero;"/></g><g transform="matrix(11.067,0,0,11.067,104.643,17.4803)"><path d="M0.549,-0.193c0,0.036 -0.009,0.069 -0.027,0.1c-0.018,0.03 -0.045,0.054 -0.08,0.073c-0.035,0.018 -0.078,0.027 -0.129,0.027c-0.05,0 -0.095,-0.008 -0.134,-0.025c-0.039,-0.017 -0.071,-0.042 -0.094,-0.074c-0.024,-0.032 -0.038,-0.069 -0.041,-0.112l0.15,0c0.003,0.029 0.015,0.053 0.035,0.072c0.019,0.019 0.045,0.028 0.078,0.028c0.029,0 0.052,-0.008 0.068,-0.023c0.015,-0.016 0.023,-0.036 0.023,-0.061c0,-0.022 -0.006,-0.04 -0.019,-0.054c-0.013,-0.015 -0.029,-0.026 -0.048,-0.035c-0.019,-0.009 -0.046,-0.019 -0.08,-0.03c-0.044,-0.015 -0.08,-0.029 -0.108,-0.043c-0.028,-0.015 -0.052,-0.036 -0.072,-0.063c-0.019,-0.027 -0.029,-0.063 -0.029,-0.107c0,-0.061 0.022,-0.108 0.065,-0.143c0.044,-0.035 0.102,-0.053 0.174,-0.053c0.075,0 0.134,0.018 0.179,0.054c0.044,0.036 0.069,0.084 0.075,0.144l-0.152,0c-0.004,-0.025 -0.015,-0.046 -0.032,-0.063c-0.017,-0.016 -0.041,-0.024 -0.071,-0.024c-0.026,0 -0.047,0.007 -0.063,0.02c-0.016,0.014 -0.024,0.034 -0.024,0.06c0,0.021 0.006,0.038 0.019,0.051c0.012,0.014 0.028,0.025 0.047,0.034c0.019,0.009 0.044,0.018 0.077,0.029c0.045,0.016 0.082,0.031 0.111,0.045c0.028,0.014 0.052,0.035 0.072,0.063c0.02,0.028 0.03,0.065 0.03,0.11Z" style="fill:#fff;fill-rule:nonzero;"/></g></g></g></svg>